<mxfile host="app.diagrams.net" modified="2021-12-12T16:30:14.416Z" agent="5.0 (Macintosh; Intel Mac OS X 10_15_7) AppleWebKit/537.36 (KHTML, like Gecko) Chrome/96.0.4664.93 Safari/537.36" etag="ICyGDLWY0mi1KY_DdIE3" version="15.9.1" type="github">
  <diagram id="8OXWHtL0j7a9txV4zpeW" name="第 1 页">
    <mxGraphModel dx="946" dy="589" grid="1" gridSize="10" guides="1" tooltips="1" connect="1" arrows="1" fold="1" page="1" pageScale="1" pageWidth="827" pageHeight="1169" math="0" shadow="0">
      <root>
        <mxCell id="0" />
        <mxCell id="1" parent="0" />
        <mxCell id="Uqrqwir5mGNkX9DSO0m_-13" value="" style="edgeStyle=orthogonalEdgeStyle;rounded=0;orthogonalLoop=1;jettySize=auto;exitX=0.5;exitY=0;exitDx=0;exitDy=0;entryX=0.5;entryY=0.938;entryDx=0;entryDy=0;entryPerimeter=0;dashed=1;sketch=1;" edge="1" parent="1" source="Uqrqwir5mGNkX9DSO0m_-1" target="Uqrqwir5mGNkX9DSO0m_-11">
          <mxGeometry relative="1" as="geometry" />
        </mxCell>
        <mxCell id="Uqrqwir5mGNkX9DSO0m_-1" value="评估KOL" style="ellipse;sketch=1;" vertex="1" parent="1">
          <mxGeometry x="190" y="160" width="120" height="80" as="geometry" />
        </mxCell>
        <mxCell id="Uqrqwir5mGNkX9DSO0m_-14" value="" style="edgeStyle=orthogonalEdgeStyle;rounded=0;orthogonalLoop=1;jettySize=auto;exitX=0.5;exitY=0;exitDx=0;exitDy=0;entryX=0.5;entryY=0.95;entryDx=0;entryDy=0;entryPerimeter=0;dashed=1;sketch=1;" edge="1" parent="1" source="Uqrqwir5mGNkX9DSO0m_-2" target="Uqrqwir5mGNkX9DSO0m_-12">
          <mxGeometry relative="1" as="geometry">
            <mxPoint x="580" y="100" as="targetPoint" />
          </mxGeometry>
        </mxCell>
        <mxCell id="Uqrqwir5mGNkX9DSO0m_-2" value="评估帖子" style="ellipse;sketch=1;" vertex="1" parent="1">
          <mxGeometry x="520" y="160" width="120" height="80" as="geometry" />
        </mxCell>
        <mxCell id="Uqrqwir5mGNkX9DSO0m_-6" value="" style="edgeStyle=orthogonalEdgeStyle;rounded=0;orthogonalLoop=1;jettySize=auto;exitX=0.5;exitY=0;exitDx=0;exitDy=0;entryX=0.5;entryY=1;entryDx=0;entryDy=0;sketch=1;" edge="1" parent="1" source="Uqrqwir5mGNkX9DSO0m_-3" target="Uqrqwir5mGNkX9DSO0m_-1">
          <mxGeometry relative="1" as="geometry" />
        </mxCell>
        <mxCell id="Uqrqwir5mGNkX9DSO0m_-7" value="" style="edgeStyle=orthogonalEdgeStyle;rounded=0;orthogonalLoop=1;jettySize=auto;exitX=1;exitY=0.5;exitDx=0;exitDy=0;entryX=0;entryY=0.5;entryDx=0;entryDy=0;sketch=1;" edge="1" parent="1" source="Uqrqwir5mGNkX9DSO0m_-3" target="Uqrqwir5mGNkX9DSO0m_-4">
          <mxGeometry relative="1" as="geometry" />
        </mxCell>
        <mxCell id="Uqrqwir5mGNkX9DSO0m_-9" value="" style="edgeStyle=orthogonalEdgeStyle;rounded=0;orthogonalLoop=1;jettySize=auto;exitX=0.5;exitY=1;exitDx=0;exitDy=0;entryX=0.5;entryY=1;entryDx=0;entryDy=0;sketch=1;" edge="1" parent="1" source="Uqrqwir5mGNkX9DSO0m_-3" target="Uqrqwir5mGNkX9DSO0m_-5">
          <mxGeometry relative="1" as="geometry" />
        </mxCell>
        <mxCell id="Uqrqwir5mGNkX9DSO0m_-15" value="" style="edgeStyle=orthogonalEdgeStyle;rounded=0;orthogonalLoop=1;jettySize=auto;exitX=0;exitY=0.5;exitDx=0;exitDy=0;shape=flexArrow;sketch=1;" edge="1" parent="1" source="Uqrqwir5mGNkX9DSO0m_-3">
          <mxGeometry relative="1" as="geometry">
            <mxPoint x="150" y="300" as="targetPoint" />
          </mxGeometry>
        </mxCell>
        <mxCell id="Uqrqwir5mGNkX9DSO0m_-3" value="榜单KOL" style="rounded=0;sketch=1;fillColor=#ffe6cc;strokeColor=#d79b00;" vertex="1" parent="1">
          <mxGeometry x="190" y="270" width="120" height="60" as="geometry" />
        </mxCell>
        <mxCell id="Uqrqwir5mGNkX9DSO0m_-16" value="" style="edgeStyle=orthogonalEdgeStyle;shape=flexArrow;rounded=0;orthogonalLoop=1;jettySize=auto;exitX=0.5;exitY=0;exitDx=0;exitDy=0;sketch=1;" edge="1" parent="1" source="Uqrqwir5mGNkX9DSO0m_-4">
          <mxGeometry relative="1" as="geometry">
            <mxPoint x="414" y="240" as="targetPoint" />
          </mxGeometry>
        </mxCell>
        <mxCell id="Uqrqwir5mGNkX9DSO0m_-4" value="前测" style="rounded=0;sketch=1;fillColor=#dae8fc;strokeColor=#6c8ebf;" vertex="1" parent="1">
          <mxGeometry x="354" y="270" width="120" height="60" as="geometry" />
        </mxCell>
        <mxCell id="Uqrqwir5mGNkX9DSO0m_-8" value="" style="edgeStyle=orthogonalEdgeStyle;rounded=0;orthogonalLoop=1;jettySize=auto;exitX=0;exitY=0.5;exitDx=0;exitDy=0;entryX=1;entryY=0.5;entryDx=0;entryDy=0;sketch=1;" edge="1" parent="1" source="Uqrqwir5mGNkX9DSO0m_-5" target="Uqrqwir5mGNkX9DSO0m_-4">
          <mxGeometry relative="1" as="geometry" />
        </mxCell>
        <mxCell id="Uqrqwir5mGNkX9DSO0m_-10" value="" style="edgeStyle=orthogonalEdgeStyle;rounded=0;orthogonalLoop=1;jettySize=auto;exitX=0.5;exitY=0;exitDx=0;exitDy=0;entryX=0.5;entryY=1;entryDx=0;entryDy=0;sketch=1;" edge="1" parent="1" source="Uqrqwir5mGNkX9DSO0m_-5" target="Uqrqwir5mGNkX9DSO0m_-2">
          <mxGeometry relative="1" as="geometry" />
        </mxCell>
        <mxCell id="Uqrqwir5mGNkX9DSO0m_-17" value="" style="edgeStyle=orthogonalEdgeStyle;shape=flexArrow;rounded=0;orthogonalLoop=1;jettySize=auto;exitX=1;exitY=0.5;exitDx=0;exitDy=0;sketch=1;" edge="1" parent="1" source="Uqrqwir5mGNkX9DSO0m_-5">
          <mxGeometry relative="1" as="geometry">
            <mxPoint x="680" y="300" as="targetPoint" />
          </mxGeometry>
        </mxCell>
        <mxCell id="Uqrqwir5mGNkX9DSO0m_-5" value="后测" style="rounded=0;sketch=1;fillColor=#d5e8d4;strokeColor=#82b366;" vertex="1" parent="1">
          <mxGeometry x="520" y="270" width="120" height="60" as="geometry" />
        </mxCell>
        <mxCell id="Uqrqwir5mGNkX9DSO0m_-11" value="timeline更新" style="ellipse;shape=cloud;sketch=1;" vertex="1" parent="1">
          <mxGeometry x="190" y="30" width="120" height="80" as="geometry" />
        </mxCell>
        <mxCell id="Uqrqwir5mGNkX9DSO0m_-12" value="帖子更新" style="ellipse;shape=cloud;sketch=1;" vertex="1" parent="1">
          <mxGeometry x="520" y="30" width="120" height="80" as="geometry" />
        </mxCell>
        <mxCell id="Uqrqwir5mGNkX9DSO0m_-21" value="ElasticSearch" style="rounded=1;sketch=1;" vertex="1" parent="1">
          <mxGeometry x="60" y="275" width="90" height="50" as="geometry" />
        </mxCell>
        <mxCell id="Uqrqwir5mGNkX9DSO0m_-22" value="MySQL" style="rounded=1;sketch=1;" vertex="1" parent="1">
          <mxGeometry x="369" y="190" width="90" height="50" as="geometry" />
        </mxCell>
        <mxCell id="Uqrqwir5mGNkX9DSO0m_-23" value="MySQL" style="rounded=1;sketch=1;" vertex="1" parent="1">
          <mxGeometry x="680" y="275" width="90" height="50" as="geometry" />
        </mxCell>
      </root>
    </mxGraphModel>
  </diagram>
</mxfile>
